<svg xmlns="http://www.w3.org/2000/svg" viewBox="0 0 24 24" width="28" height="28" fill="currentColor" aria-hidden="true"><title>GitHub</title><path d="M12 .5C6.2.5 1.7 5 1.7 10.8c0 4.6 3 8.5 7.2 9.8.5.1.7-.2.7-.5v-2c-2.9.6-3.6-1.4-3.6-1.4-.5-1.3-1.2-1.6-1.2-1.6-1-.7.1-.7.1-.7 1.1.1 1.7 1.1 1.7 1.1 1 .1.8-.9 1.7-1.2-.8-.1-1.7-.4-2.1-1-.5-.5-.8-1.3-.8-2.1 0-1 .4-1.8 1-2.4-.2-.3-.4-1.2.1-2.4 0 0 .8-.3 2.5 1 .7-.2 1.5-.4 2.3-.4s1.6.1 2.3.4c1.7-1.3 2.5-1 2.5-1 .5 1.2.3 2.1.1 2.4.6.6 1 1.4 1 2.4 0 .8-.3 1.6-.8 2.1-.5.6-1.3.9-2.1 1 .8.5 1.7 1.7 1.7 3.4v2.6c0 .3.2.6.7.5 4.2-1.3 7.2-5.2 7.2-9.8C22.3 5 17.8.5 12 .5z"/></svg>